<svg viewBox="0 0 1024 1024" version="1.1" xmlns="http://www.w3.org/2000/svg" width="64" height="64" >
    <path fill="#909399" d="M512 177.252481c11.289967 0 20.32194-9.596472 20.32194-20.32194 0-11.289967-9.596472-20.32194-20.32194-20.32194-11.289967 0-20.32194 9.596472-20.32194 20.32194C491.113561 168.220507 500.710033 177.252481 512 177.252481z" />
    <path fill="#909399" d="M924.648291 416.599779c0-228.057332-184.590959-412.648291-412.648291-412.648291-228.057332 0-412.648291 184.590959-412.648291 412.648291 0 182.332966 117.980154 336.441014 281.684675 391.197354l-120.238148 194.187431c0 10.725469 7.902977 18.063947 18.063947 18.063947l466.275634 0c10.725469 0 18.063947-7.902977 18.063947-18.063947l-130.399118-190.800441C801.587652 759.814774 924.648291 602.884234 924.648291 416.599779zM512 108.948181c25.966924 0 47.417861 22.015436 47.417861 47.417861 0 25.966924-20.886439 47.417861-47.417861 47.417861-25.966924 0-47.417861-20.886439-47.417861-47.417861S485.468578 108.948181 512 108.948181zM512 724.251378c-125.318633 0-226.928335-101.045204-226.928335-226.928335 0-125.318633 101.045204-226.928335 226.928335-226.928335 125.318633 0 226.928335 101.045204 226.928335 226.928335C738.363837 623.206174 637.318633 724.251378 512 724.251378z" />
    <path fill="#909399" d="M512 337.570011c-88.061742 0-159.753032 71.69129-159.753032 159.753032 0 88.061742 71.69129 159.753032 159.753032 159.753032 88.061742 0 159.753032-71.69129 159.753032-159.753032C671.188534 409.261301 600.061742 337.570011 512 337.570011z" />
</svg>
