<?xml version="1.0" standalone="no"?><!DOCTYPE svg PUBLIC "-//W3C//DTD SVG 1.1//EN" "http://www.w3.org/Graphics/SVG/1.1/DTD/svg11.dtd"><svg t="1750176189324" class="icon" viewBox="0 0 1024 1024" version="1.1" xmlns="http://www.w3.org/2000/svg" p-id="5419" xmlns:xlink="http://www.w3.org/1999/xlink" width="64" height="64"><path d="M815.6 441.2C808 299.2 689.9 186 545.9 186c-114.1 0-216.1 73.3-254.2 178.3C165.3 369.3 64 473.6 64 601c0 130.7 106.4 237 237.3 237h455.8C869 838 960 747.1 960 635.3a202.3 202.3 0 0 0-144.4-194.1z m-339.5 46.7v275.8a3.9 3.9 0 0 1-4 4h-56a3.9 3.9 0 0 1-4-4V522.3h-50.4c-15.2 0-21.8-19-10-28.5l98.4-78.7c10.4-8.3 26-0.9 26 12.5z m196.2 197.3l-98.2 79a16 16 0 0 1-26-12.5v-337a3.9 3.9 0 0 1 4-4H608a4 4 0 0 1 4 4v242h50.3c15.1 0 21.8 19.1 10 28.5z" p-id="5420" fill="#909399"></path></svg>