<?xml version="1.0" standalone="no"?><!DOCTYPE svg PUBLIC "-//W3C//DTD SVG 1.1//EN" "http://www.w3.org/Graphics/SVG/1.1/DTD/svg11.dtd"><svg t="1751452862333" class="icon" viewBox="0 0 1024 1024" version="1.1" xmlns="http://www.w3.org/2000/svg" p-id="9543" width="64" height="64" xmlns:xlink="http://www.w3.org/1999/xlink"><path d="M881.778 867.57H142.222a85.433 85.433 0 0 1-85.333-85.334v-553.67a87.04 87.04 0 0 1 87.523-86.33h262.571c0.441 0.228 87.125 85.76 87.51 86.33h387.285a85.433 85.433 0 0 1 85.333 85.333v468.337a85.433 85.433 0 0 1-85.333 85.334z m-536.42-276.31a25.899 25.899 0 0 0-15.815 46.408l85.476 84.508a26.311 26.311 0 0 0 36.878 0 25.6 25.6 0 0 0 0-36.452l-43.165-42.666h269.91a25.899 25.899 0 1 0 0-51.798H345.358z m0-138.168a25.913 25.913 0 1 0 0 51.811h333.284a25.913 25.913 0 0 0 15.36-46.777l-85.035-83.91a26.311 26.311 0 0 0-36.864 0 25.472 25.472 0 0 0 0 36.365l43.065 42.482-269.81 0.029z" p-id="9544" fill="#909399"></path></svg>